<svg width="42" height="53" viewBox="0 0 42 53" fill="none" xmlns="http://www.w3.org/2000/svg">
<path d="M17.5 20.125C17.4949 22.8382 18.3394 25.4849 19.915 27.6938L14.6212 32.9963C14.4544 33.1574 14.232 33.2483 14 33.25H11.375V35.875C11.3743 36.1068 11.2819 36.329 11.118 36.493C10.954 36.6569 10.7319 36.7493 10.5 36.75H7.875V39.375C7.87431 39.6068 7.7819 39.829 7.61795 39.993C7.45401 40.1569 7.23185 40.2493 7 40.25H0.875C0.643149 40.2493 0.420991 40.1569 0.257046 39.993C0.0931016 39.829 0.000692443 39.6068 0 39.375V33.25C0.0017275 33.018 0.0925787 32.7956 0.25375 32.6287L12.8012 20.09C12.436 18.9713 12.25 17.8018 12.25 16.625C12.2486 14.5861 12.7955 12.5844 13.8336 10.8295C14.8717 9.0747 16.3626 7.63137 18.1502 6.65079C19.9378 5.67021 21.9562 5.18847 23.994 5.25607C26.0318 5.32367 28.0138 5.93811 29.7325 7.035C26.415 7.26256 23.3075 8.74026 21.0371 11.1698C18.7667 13.5993 17.5026 16.7998 17.5 20.125ZM38.8517 12.2911C38.478 13.691 37.7986 14.9907 36.8626 16.0966C35.9265 17.2026 34.757 18.0874 33.4381 18.6874C33.0473 19.227 32.5108 19.644 31.8915 19.8897C31.2723 20.1354 30.5958 20.1996 29.9413 20.0747C29.2869 19.9498 28.6816 19.641 28.1963 19.1845C27.711 18.728 27.3658 18.1427 27.2012 17.4971C27.0365 16.8516 27.0592 16.1724 27.2667 15.5393C27.4741 14.9061 27.8576 14.3452 28.3723 13.9221C28.887 13.4991 29.5116 13.2314 30.1729 13.1505C30.8342 13.0696 31.5049 13.1789 32.1064 13.4654C32.7124 12.9493 33.2033 12.3118 33.5474 11.594C33.8915 10.8763 34.0811 10.0943 34.104 9.29862C31.391 8.42432 28.4486 8.60107 25.8598 9.79387C23.2711 10.9867 21.2248 13.1085 20.1266 15.7388C19.0285 18.3691 18.9585 21.316 19.9305 23.9955C20.9026 26.675 22.8458 28.8915 25.375 30.2059V47.25C25.375 47.482 25.4673 47.7046 25.6314 47.8686L30.0064 52.2436C30.1705 52.4077 30.393 52.4998 30.625 52.4998C30.857 52.4998 31.0795 52.4077 31.2436 52.2436L35.6186 47.8686C35.7827 47.7045 35.8748 47.482 35.8748 47.25C35.8748 47.018 35.7827 46.7955 35.6186 46.6314L33.6123 44.625L35.6186 42.6186C35.7827 42.4545 35.8748 42.232 35.8748 42C35.8748 41.768 35.7827 41.5455 35.6186 41.3814L33.6123 39.375L35.6186 37.3686C35.7827 37.2046 35.875 36.982 35.875 36.75V30.2059C37.4399 29.395 38.7944 28.2306 39.831 26.8051C40.8675 25.3796 41.5576 23.7321 41.8465 21.9934C42.1354 20.2547 42.0152 18.4726 41.4953 16.7885C40.9755 15.1043 40.0704 13.5645 38.8517 12.2911ZM30.625 1.75C33.5204 1.75 35.875 4.89038 35.875 8.75C35.875 12.6096 33.5204 15.75 30.625 15.75C30.3929 15.75 30.1704 15.8422 30.0063 16.0063C29.8422 16.1704 29.75 16.3929 29.75 16.625C29.75 16.8571 29.8422 17.0796 30.0063 17.2437C30.1704 17.4078 30.3929 17.5 30.625 17.5C34.4846 17.5 37.625 13.5747 37.625 8.75C37.625 3.92525 34.4846 0 30.625 0C29.4512 0.045354 28.3103 0.400167 27.3178 1.02849C26.3253 1.65681 25.5165 2.53631 24.9734 3.57788C25.6072 3.64325 26.2354 3.75497 26.8529 3.91213C27.2632 3.27665 27.8198 2.74873 28.4761 2.37256C29.1324 1.99639 29.8693 1.78291 30.625 1.75Z" fill="url(#paint0_linear_66_212)" fill-opacity="0.24"/>
<path d="M17.5 20.125C17.4949 22.8382 18.3394 25.4849 19.915 27.6938L14.6212 32.9963C14.4544 33.1574 14.232 33.2483 14 33.25H11.375V35.875C11.3743 36.1068 11.2819 36.329 11.118 36.493C10.954 36.6569 10.7319 36.7493 10.5 36.75H7.875V39.375C7.87431 39.6068 7.7819 39.829 7.61795 39.993C7.45401 40.1569 7.23185 40.2493 7 40.25H0.875C0.643149 40.2493 0.420991 40.1569 0.257046 39.993C0.0931016 39.829 0.000692443 39.6068 0 39.375V33.25C0.0017275 33.018 0.0925787 32.7956 0.25375 32.6287L12.8012 20.09C12.436 18.9713 12.25 17.8018 12.25 16.625C12.2486 14.5861 12.7955 12.5844 13.8336 10.8295C14.8717 9.0747 16.3626 7.63137 18.1502 6.65079C19.9378 5.67021 21.9562 5.18847 23.994 5.25607C26.0318 5.32367 28.0138 5.93811 29.7325 7.035C26.415 7.26256 23.3075 8.74026 21.0371 11.1698C18.7667 13.5993 17.5026 16.7998 17.5 20.125ZM38.8517 12.2911C38.478 13.691 37.7986 14.9907 36.8626 16.0966C35.9265 17.2026 34.757 18.0874 33.4381 18.6874C33.0473 19.227 32.5108 19.644 31.8915 19.8897C31.2723 20.1354 30.5958 20.1996 29.9413 20.0747C29.2869 19.9498 28.6816 19.641 28.1963 19.1845C27.711 18.728 27.3658 18.1427 27.2012 17.4971C27.0365 16.8516 27.0592 16.1724 27.2667 15.5393C27.4741 14.9061 27.8576 14.3452 28.3723 13.9221C28.887 13.4991 29.5116 13.2314 30.1729 13.1505C30.8342 13.0696 31.5049 13.1789 32.1064 13.4654C32.7124 12.9493 33.2033 12.3118 33.5474 11.594C33.8915 10.8763 34.0811 10.0943 34.104 9.29862C31.391 8.42432 28.4486 8.60107 25.8598 9.79387C23.2711 10.9867 21.2248 13.1085 20.1266 15.7388C19.0285 18.3691 18.9585 21.316 19.9305 23.9955C20.9026 26.675 22.8458 28.8915 25.375 30.2059V47.25C25.375 47.482 25.4673 47.7046 25.6314 47.8686L30.0064 52.2436C30.1705 52.4077 30.393 52.4998 30.625 52.4998C30.857 52.4998 31.0795 52.4077 31.2436 52.2436L35.6186 47.8686C35.7827 47.7045 35.8748 47.482 35.8748 47.25C35.8748 47.018 35.7827 46.7955 35.6186 46.6314L33.6123 44.625L35.6186 42.6186C35.7827 42.4545 35.8748 42.232 35.8748 42C35.8748 41.768 35.7827 41.5455 35.6186 41.3814L33.6123 39.375L35.6186 37.3686C35.7827 37.2046 35.875 36.982 35.875 36.75V30.2059C37.4399 29.395 38.7944 28.2306 39.831 26.8051C40.8675 25.3796 41.5576 23.7321 41.8465 21.9934C42.1354 20.2547 42.0152 18.4726 41.4953 16.7885C40.9755 15.1043 40.0704 13.5645 38.8517 12.2911ZM30.625 1.75C33.5204 1.75 35.875 4.89038 35.875 8.75C35.875 12.6096 33.5204 15.75 30.625 15.75C30.3929 15.75 30.1704 15.8422 30.0063 16.0063C29.8422 16.1704 29.75 16.3929 29.75 16.625C29.75 16.8571 29.8422 17.0796 30.0063 17.2437C30.1704 17.4078 30.3929 17.5 30.625 17.5C34.4846 17.5 37.625 13.5747 37.625 8.75C37.625 3.92525 34.4846 0 30.625 0C29.4512 0.045354 28.3103 0.400167 27.3178 1.02849C26.3253 1.65681 25.5165 2.53631 24.9734 3.57788C25.6072 3.64325 26.2354 3.75497 26.8529 3.91213C27.2632 3.27665 27.8198 2.74873 28.4761 2.37256C29.1324 1.99639 29.8693 1.78291 30.625 1.75Z" fill="url(#paint1_linear_66_212)" fill-opacity="0.24"/>
<defs>
<linearGradient id="paint0_linear_66_212" x1="0" y1="0" x2="46.6429" y2="4.51289" gradientUnits="userSpaceOnUse">
<stop stop-color="white"/>
<stop offset="1" stop-color="white" stop-opacity="0.35"/>
</linearGradient>
<linearGradient id="paint1_linear_66_212" x1="0" y1="0" x2="46.6429" y2="4.51289" gradientUnits="userSpaceOnUse">
<stop stop-color="#ADFFAD"/>
<stop offset="1" stop-color="#ADFFAD" stop-opacity="0.35"/>
</linearGradient>
</defs>
</svg>
