<svg width="35" height="34" viewBox="0 0 35 34" fill="none" xmlns="http://www.w3.org/2000/svg">
<path d="M16.9062 6.07813C17.6406 6.07813 18.2499 5.46875 18.2499 4.71875V1.35937C18.2499 0.609374 17.6406 0 16.9062 0C16.1563 0 15.5469 0.609374 15.5469 1.35937V4.71875C15.5469 5.46875 16.1563 6.07813 16.9062 6.07813ZM24.5626 9.28125C25.0938 9.79688 25.9531 9.8125 26.4843 9.28125L28.875 6.89062C29.3906 6.37501 29.3906 5.5 28.875 4.96875C28.3594 4.45312 27.4843 4.45312 26.9688 4.96875L24.5626 7.37501C24.0469 7.89062 24.0469 8.76563 24.5626 9.28125ZM27.7344 16.9531C27.7344 17.6875 28.3594 18.2968 29.0938 18.2968H32.4531C33.1875 18.2968 33.7968 17.6875 33.7968 16.9531C33.7968 16.2187 33.1875 15.5937 32.4531 15.5937H29.0938C28.3594 15.5937 27.7344 16.2187 27.7344 16.9531ZM24.5626 24.625C24.0469 25.1563 24.0469 26.0157 24.5626 26.5312L26.9688 28.9531C27.4843 29.4688 28.3594 29.4374 28.875 28.9374C29.3906 28.4062 29.3906 27.5469 28.875 27.0312L26.4688 24.625C25.9531 24.1094 25.0938 24.125 24.5626 24.625ZM16.9062 27.8282C16.1563 27.8282 15.5469 28.4374 15.5469 29.1718V32.5469C15.5469 33.2813 16.1563 33.8906 16.9062 33.8906C17.6406 33.8906 18.2499 33.2813 18.2499 32.5469V29.1718C18.2499 28.4374 17.6406 27.8282 16.9062 27.8282ZM9.23437 24.625C8.70312 24.125 7.82813 24.1094 7.3125 24.625L4.92187 27.0157C4.40626 27.5312 4.40626 28.3906 4.90626 28.9219C5.42187 29.4219 6.3125 29.4531 6.82813 28.9374L9.21875 26.5312C9.73437 26.0157 9.73437 25.1563 9.23437 24.625ZM6.0625 16.9531C6.0625 16.2187 5.4375 15.5937 4.70312 15.5937H1.34375C0.609374 15.5937 0 16.2187 0 16.9531C0 17.6875 0.609374 18.2968 1.34375 18.2968H4.70312C5.4375 18.2968 6.0625 17.6875 6.0625 16.9531ZM9.21875 9.28125C9.73437 8.78125 9.73437 7.87501 9.23437 7.37501L6.84374 4.96875C6.34374 4.46875 5.45312 4.45312 4.9375 4.96875C4.42187 5.5 4.42187 6.37501 4.92187 6.87501L7.3125 9.28125C7.82813 9.79688 8.6875 9.79688 9.21875 9.28125Z" fill="url(#paint0_linear_64_95)"/>
<path d="M16.891 24.9062C21.2818 24.9062 24.8442 21.3437 24.8442 16.9531C24.8442 12.5625 21.2818 8.98435 16.891 8.98435C12.5005 8.98435 8.93799 12.5625 8.93799 16.9531C8.93799 21.3437 12.5005 24.9062 16.891 24.9062Z" fill="url(#paint1_linear_64_95)"/>
<defs>
<linearGradient id="paint0_linear_64_95" x1="8" y1="0" x2="8" y2="33.8906" gradientUnits="userSpaceOnUse">
<stop stop-color="#FFD600"/>
<stop offset="1" stop-color="#E2BE00"/>
</linearGradient>
<linearGradient id="paint1_linear_64_95" x1="8.00048" y1="-1.53496e-05" x2="8.00048" y2="33.8905" gradientUnits="userSpaceOnUse">
<stop stop-color="#FFD600"/>
<stop offset="1" stop-color="#E2BE00"/>
</linearGradient>
</defs>
</svg>
